<svg width="24" height="21" viewBox="0 0 24 21" fill="none" xmlns="http://www.w3.org/2000/svg">
<path d="M20.8401 2.60999C20.3294 2.099 19.7229 1.69364 19.0555 1.41708C18.388 1.14052 17.6726 0.998169 16.9501 0.998169C16.2276 0.998169 15.5122 1.14052 14.8448 1.41708C14.1773 1.69364 13.5709 2.099 13.0601 2.60999L12.0001 3.66999L10.9401 2.60999C9.90843 1.5783 8.50915 0.998704 7.05012 0.998704C5.59109 0.998704 4.19181 1.5783 3.16012 2.60999C2.12843 3.64169 1.54883 5.04096 1.54883 6.49999C1.54883 7.95903 2.12843 9.3583 3.16012 10.39L12.0001 19.23L20.8401 10.39C21.3511 9.87924 21.7565 9.27281 22.033 8.60535C22.3096 7.93789 22.4519 7.22248 22.4519 6.49999C22.4519 5.77751 22.3096 5.0621 22.033 4.39464C21.7565 3.72718 21.3511 3.12075 20.8401 2.60999Z" stroke="#FF0303" stroke-width="2" stroke-linecap="round" stroke-linejoin="round"/>
</svg>
